<svg width="512" height="512" viewBox="0 0 512 512" fill="none" xmlns="http://www.w3.org/2000/svg">
<path d="M205.626 0H201.591C198.901 13.3943 193.969 8.15173 133.444 48C113.269 62.0641 43.7773 107.526 43.7773 165.536C43.7773 223.131 85.0241 300.034 137.031 319.791C189.038 339.547 191.877 352.16 196.659 361.313C179.623 339.882 167.069 335.529 133.444 324.144C107.889 316.107 37.0523 305.057 27.189 208.617C25.844 193.884 24.499 156.714 24.499 156.714H19.914C19.914 156.714 3.91698 252.986 3.91698 256C-4.39789 325.483 2.56901 336.272 6.15569 353.35C9.74236 370.428 33.4656 440.413 142.411 448.785C169.311 450.794 194.866 435.987 199.798 462.441C204.281 479.854 206.971 510.326 206.971 512H210.558C210.558 512 214.144 426.611 209.661 398.148C205.178 369.685 198.004 344.235 162.138 325.483C126.271 306.731 124.029 304.722 117.752 299.029C111.476 293.337 73.8157 262.53 127.168 221.007C142.859 206.943 204.729 186.852 206.523 112.513L205.626 0Z" fill="#F87D9A"/>
<path d="M267.141 146.978H267.641V146.478V13.0977L367.492 0.56667V73.239V146.478V146.978L367.992 146.978L471.317 146.981L463.537 239.503L367.981 239.5L367.481 239.5L367.481 240L367.492 499.337L267.641 511.433L267.63 240L267.63 239.5H267.13H160.528L168.826 146.978H267.141Z" fill="white" stroke="white"/>
</svg>
